<svg width="78" height="43" viewBox="0 0 78 43" fill="none" xmlns="http://www.w3.org/2000/svg">
<path fill-rule="evenodd" clip-rule="evenodd" d="M12.3338 21.4352C10.2167 25.465 5.63763 26.9983 1.65929 24.8507C4.21468 19.9854 6.77007 15.1202 9.32546 10.2549C11.4426 6.22509 16.0217 4.6918 20 6.83939L12.3338 21.4352ZM8.16348 9.70449L4.33285 17.0024C0.349596 14.8597 -1.15705 9.85192 0.955208 5.82211L8.16348 9.70449Z" fill="#0080FF"/>
<path d="M25.8306 31.376L20 21.1254C20.224 21.0865 20.6101 21.0477 21.1661 21.001C21.7222 20.9621 22.3323 20.9388 23.0041 20.9388C23.5293 20.9388 24.0467 20.9621 24.5564 21.001C25.0661 21.0399 25.3982 21.0788 25.5604 21.1254L28.5413 27.1529L31.5223 21.1254C31.6845 21.0865 31.9934 21.0477 32.449 21.001C32.9047 20.9621 33.3989 20.9388 33.9241 20.9388C34.5959 20.9388 35.1906 20.9621 35.7157 21.001C36.2409 21.0399 36.6193 21.0788 36.8432 21.1254L30.9817 31.376V36.9135C30.4566 36.9912 29.9777 37.0534 29.553 37.1001C29.1282 37.139 28.7421 37.1623 28.3946 37.1623C28.0471 37.1623 27.6687 37.139 27.2362 37.1001C26.8114 37.0612 26.3481 36.999 25.8384 36.9135V31.376H25.8306ZM38.3801 21.1254C38.828 21.0243 39.2682 20.9543 39.7006 20.9077C40.1331 20.8688 40.5579 20.8454 40.9594 20.8454C41.3456 20.8454 41.7626 20.8688 42.2028 20.9077C42.6507 20.9466 43.0832 21.0165 43.5079 21.1254V36.9135C42.9828 36.9912 42.504 37.0534 42.0792 37.1001C41.6545 37.139 41.2684 37.1623 40.9208 37.1623C40.5733 37.1623 40.1949 37.139 39.7624 37.1001C39.3377 37.0612 38.8743 36.999 38.3646 36.9135V21.1254H38.3801ZM46.9214 21.8876C47.6319 21.6465 48.4814 21.4054 49.4699 21.1721C50.4661 20.9388 51.7172 20.8221 53.2386 20.8221C54.0726 20.8221 54.8912 20.8921 55.7021 21.0243C56.513 21.1565 57.2621 21.4287 57.9494 21.8332C58.4746 21.5687 59.0924 21.3354 59.8029 21.1332C60.5134 20.931 61.3088 20.8299 62.2046 20.8299C62.9924 20.8299 63.811 20.9077 64.6527 21.0632C65.4945 21.2188 66.2513 21.5376 66.9309 22.0276C67.6105 22.5176 68.1666 23.2175 68.599 24.1353C69.0315 25.053 69.2555 26.2663 69.2555 27.7751V36.9212C68.7303 37.0223 68.2515 37.0923 67.8268 37.1234C67.402 37.1546 67.0236 37.1701 66.6993 37.1701C66.3517 37.1701 65.9733 37.1546 65.5409 37.1234C65.1161 37.0923 64.6373 37.0301 64.1121 36.9212V28.3195C64.1121 27.2384 63.9268 26.4607 63.5638 25.9941C63.2009 25.5274 62.5985 25.2941 61.7722 25.2941C61.4864 25.2941 61.2084 25.3252 60.9381 25.3874C60.6678 25.4496 60.4748 25.4963 60.3744 25.543C60.5597 26.2585 60.6446 27.0751 60.6446 27.9928V36.929C60.1195 37.0301 59.6407 37.1001 59.2159 37.1312C58.7912 37.1623 58.4128 37.1779 58.0884 37.1779C57.7409 37.1779 57.3625 37.1623 56.93 37.1312C56.5053 37.1001 56.0265 37.0379 55.5013 36.929V28.3273C55.5013 27.2462 55.3314 26.4685 54.9839 26.0018C54.6364 25.5352 54.0494 25.3019 53.2231 25.3019C52.9992 25.3019 52.7598 25.3252 52.5126 25.3641C52.2578 25.403 52.1033 25.4419 52.0415 25.4885V36.929C51.5164 37.0301 51.0376 37.1001 50.6128 37.1312C50.1881 37.1623 49.8097 37.1779 49.4853 37.1779C49.1378 37.1779 48.7594 37.1623 48.3269 37.1312C47.9022 37.1001 47.4234 37.0379 46.8982 36.929V21.9032L46.9214 21.8876ZM72.5067 21.1254C72.9547 21.0243 73.3949 20.9543 73.8273 20.9077C74.2598 20.8688 74.6845 20.8454 75.0861 20.8454C75.4723 20.8454 75.8893 20.8688 76.3295 20.9077C76.7774 20.9466 77.2099 21.0165 77.6346 21.1254V36.9135C77.1095 36.9912 76.6307 37.0534 76.2059 37.1001C75.7812 37.139 75.395 37.1623 75.0475 37.1623C74.7 37.1623 74.3216 37.139 73.8891 37.1001C73.4644 37.0612 73.001 36.999 72.4913 36.9135V21.1254H72.5067Z" fill="#0080FF"/>
</svg>
